 http://www.postimg.com/42000/photo-41081.jpg

Screens:
 
http://www.postimg.com/42000/photo-41082.jpg 
http://www.postimg.com/42000/photo-41083.jpg 
http://www.postimg.com/42000/photo-41084.jpg 
http://www.postimg.com/42000/photo-41085.jpg

ScreenCaps:
 
http://www.postimg.com/image/42000/photo-41090.jpg

Source Code (2011) DVDRip XviD-MAX 
Format                           : AVI
Format/Info                      : Audio Video Inerleave
Format profile                   : OpenDML
File size                        : 1.36 GiB
Duration                         : 1h 33mn
Overall bit rate                 : 2 093 Kbps
Writing application              : VirtualDubMod 1.5.10.2 (build 2542/release)
Writing library                  : VirtualDubMod build 2542/release
Original source form             : MAX TORRENTZ
Copyright                        : SIGISMUNT

Video
ID                               : 0
Format                           : MPEG-4 Visual
Format profile                   : AdvancedSimple@L5
Format settings, BVOP            : Yes
Format settings, QPel            : No
Format settings, GMC             : No warppoints
Format settings, Matrix          : Default (H.263)
Codec ID                         : XVID
Codec ID/Hint                    : XviD
Duration                         : 1h 33mn
Bit rate                         : 1 897 Kbps
Width                            : 720 pixels
Height                           : 400 pixels
Display aspect ratio             : 16:9
Frame rate                       : 23.976 fps
Resolution                       : 24 bits
Colorimetry                      : 4:2:0
Scan type                        : Progressive
Bits/(Pixel*Frame)               : 0.275
Stream size                      : 1.23 GiB (91%)
Writing library                  : XviD 1.2.1 (UTC 2008-12-04)

Audio
ID                               : 1
Format                           : MPEG Audio
Format version                   : Version 1
Format profile                   : Layer 2
Codec ID                         : 50
Codec ID/Hint                    : MP1
Duration                         : 1h 33mn
Bit rate mode                    : Constant
Bit rate                         : 192 Kbps
Channel(s)                       : 2 channels
Sampling rate                    : 48.0 KHz
Resolution                       : 16 bits
Stream size                      : 128 MiB (9%)
Alignment                        : Aligned on interleaves
Interleave, duration             : 436 ms (10.45 video frames)
Interleave, preload duration     : 216 ms
 
http://www.imdb.com/title/tt0945513/
 
Source: HDTV DVD (no hardcoded foreign subtitle and also no crop as all
other available encodes,perfect a/v/sync quality,sample included)
This release is not seedbox supported,please seed it to the MAX

Source Code (2011) DVDRip XviD-MAX Torrent Free Download
 
http://thepiratebay.org/user/extremezone/0/7

How To Get Your Maxspeed (uTorrent)

Torrent Client - Preferences - Bandwidth - Number of connections - Set aprox. 500 for each 
Torrent Client - Preferences - BiTorrent - Protocol Encryption - Forced
Bandwidth Allocation - High (Set download/upload limit - Unlimited)
Stop Other Active Torrents - Start downloading and wait for connections.
Enjoy and Seed for at least 1:1 ratio. Don't forget to say thanks/leave reviews.
Before downloading you should check/google search sample "release name""sample".
Greets to all actual/future p2p/scene QUALITY groups and affiliate websites.
Don't trust IMDb robot or bad ratings,always watch some trailers first.
Ignore stupid comments/fake/mislabeled/no-DVDrips/CAM/TS/RAR uploads.
Please spread this release/torrent to your friends/forums/etc.
If you need translation subs visit some subtitles sites.
Report if you see online streaming or other spam links.
Recommended movie player VLC PLAYER.